<svg width="160" height="50" viewBox="0 0 160 50" fill="none" xmlns="http://www.w3.org/2000/svg">
<path d="M61.5412 15.8577V36.9081L64.25 36.9288V26.8999H70.7843V24.2531H64.25V18.5045H72.7488V15.8577H61.5412ZM77.6288 20.1381C78.6007 20.1381 79.4071 19.3523 79.4071 18.3598C79.4071 17.3672 78.6214 16.5815 77.6288 16.5815C76.6569 16.5815 75.8505 17.3672 75.8505 18.3598C75.8505 19.3523 76.6363 20.1381 77.6288 20.1381ZM76.2434 22.7849V36.9288H78.9522V22.7849H76.2434ZM89.0018 22.3714C85.4038 22.3714 82.9017 25.4111 82.9017 29.0297C82.9017 32.6484 85.4038 35.6881 89.0018 35.6881C90.6561 35.6881 92.0002 35.0678 92.9927 34.0132V35.8949C93.0134 38.2315 91.1523 40.1753 88.795 40.196C88.7744 40.196 88.7744 40.196 88.7537 40.196C87.8852 40.196 87.0374 39.8651 86.355 39.3895L84.9902 41.7468C88.216 43.8353 92.5171 42.9048 94.5849 39.679C95.3087 38.5417 95.7015 37.239 95.7015 35.8949V22.8056H92.9927V24.067C92.0002 23.0124 90.6561 22.3714 89.0018 22.3714ZM85.6106 29.0297C85.6106 26.7758 87.3269 25.0182 89.312 25.0182C91.2971 25.0182 92.9927 26.7965 92.9927 29.0297C92.9927 31.2837 91.2764 33.0206 89.312 33.0206C87.3269 33.0206 85.6106 31.263 85.6106 29.0297ZM105.462 25.0182C103.849 25.0388 102.546 26.3622 102.567 27.9751V36.9081H99.8579V22.7642H102.567V24.067C103.394 22.971 104.676 22.3507 106.061 22.3714C107.964 22.3714 109.432 23.3019 110.259 24.7493C111.21 23.2812 112.823 22.392 114.56 22.3714C117.641 22.3714 119.564 24.8527 119.564 27.9338V36.9081H116.876V27.9751C116.876 26.3622 115.594 25.0388 113.981 25.0182C112.368 25.0388 111.065 26.3622 111.086 27.9751V36.9081H108.357V27.9751C108.357 26.3622 107.075 25.0388 105.462 25.0182ZM133.998 24.3771C132.757 23.0744 131.02 22.3507 129.221 22.3714C125.189 22.3714 122.335 25.7833 122.335 29.8362C122.335 33.9098 125.189 37.301 129.221 37.301C131.02 37.301 132.736 36.5773 133.998 35.2952V36.9081H136.706V22.7642H133.998V24.3771ZM125.044 29.8362C125.044 27.148 127.112 24.9975 129.531 24.9975C131.93 25.0182 133.998 27.148 133.998 29.8362C133.998 32.5243 131.93 34.6542 129.51 34.6542C127.132 34.6749 125.044 32.545 125.044 29.8362Z" fill="white"/>
<path d="M36.8102 28.9056C36.8102 25.0595 39.9326 21.9371 43.7787 21.9371C47.6249 21.9371 50.7473 25.0595 50.7473 28.9056C50.7473 32.7518 47.6249 35.8742 43.7787 35.8742C39.9326 35.8742 36.8102 32.7518 36.8102 28.9056Z" fill="white"/>
<path d="M22.8937 42.822C22.8937 38.9759 26.0161 35.8535 29.8622 35.8535H36.8308V42.822C36.8308 46.6681 33.7084 49.7906 29.8622 49.7906C26.0161 49.7906 22.8937 46.6681 22.8937 42.822Z" fill="white"/>
<path d="M36.8102 8.02068V21.9371H43.7787C47.6249 21.9371 50.7473 18.8147 50.7473 14.9686C50.7473 11.1224 47.6249 8 43.7787 8H36.8102V8.02068Z" fill="white"/>
<path d="M22.8937 14.9892C22.8937 18.8353 26.0161 21.9577 29.8622 21.9577H36.8308V8.0413H29.8622C26.0161 8.02062 22.8937 11.143 22.8937 14.9892Z" fill="white"/>
<path d="M22.8937 28.9056C22.8937 32.7518 26.0161 35.8742 29.8622 35.8742H36.8308V21.9577H29.8622C26.0161 21.9371 22.8937 25.0595 22.8937 28.9056Z" fill="white"/>
</svg>
